<svg width="27" height="22" viewBox="0 0 27 22" fill="none" xmlns="http://www.w3.org/2000/svg">
<path d="M14.0098 4.27594C14.0589 3.59689 14.2831 2.94216 14.6607 2.37565C15.0383 1.80915 15.5563 1.35023 16.1642 1.04369C16.7721 0.737153 17.4491 0.593471 18.1291 0.626672C18.8091 0.659873 19.4689 0.868822 20.0441 1.23312C20.1098 1.27615 20.1628 1.33609 20.1974 1.40665C20.232 1.47721 20.2469 1.55578 20.2406 1.63411C20.2344 1.71244 20.2071 1.78764 20.1618 1.8518C20.1164 1.91597 20.0546 1.96672 19.9828 1.99875C18.983 2.44857 18.1343 3.17748 17.5387 4.09791C16.943 5.01833 16.6258 6.09115 16.625 7.1875C16.625 7.31547 16.625 7.44343 16.6381 7.56922C16.6442 7.64872 16.6283 7.72836 16.5924 7.79953C16.5565 7.8707 16.5018 7.93069 16.4342 7.97303C16.3666 8.01537 16.2888 8.03844 16.2091 8.03975C16.1294 8.04106 16.0508 8.02056 15.9819 7.98047C15.3373 7.61177 14.8101 7.06831 14.4612 6.41283C14.1122 5.75734 13.9558 5.01654 14.0098 4.27594ZM26.25 15.5667C26.2516 16.0667 26.1131 16.5571 25.8501 16.9824C25.5872 17.4077 25.2105 17.7509 24.7625 17.973L24.7144 17.9948L20.4673 19.8039C20.4254 19.8224 20.3818 19.837 20.3372 19.8477L13.3372 21.5977C13.2678 21.6154 13.1966 21.6246 13.125 21.625H1.75C1.28587 21.625 0.840752 21.4406 0.512563 21.1124C0.184374 20.7842 0 20.3391 0 19.875V15.5C0 15.0359 0.184374 14.5907 0.512563 14.2626C0.840752 13.9344 1.28587 13.75 1.75 13.75H4.88797L7.36203 11.2748C7.68644 10.949 8.07221 10.6906 8.49705 10.5147C8.92189 10.3388 9.37737 10.2488 9.83719 10.25H15.3125C15.7747 10.2499 16.2309 10.3545 16.6469 10.5559C17.063 10.7572 17.428 11.0501 17.7148 11.4126C18.0015 11.7751 18.2024 12.1978 18.3026 12.649C18.4027 13.1002 18.3994 13.5682 18.293 14.018L22.8692 12.9658C23.2676 12.8603 23.6849 12.8477 24.0889 12.9289C24.493 13.0102 24.8729 13.1831 25.1996 13.4344C25.5262 13.6857 25.7908 14.0086 25.9729 14.3783C26.155 14.748 26.2498 15.1546 26.25 15.5667ZM24.5 15.5667C24.4999 15.422 24.4664 15.2793 24.4022 15.1497C24.338 15.02 24.2448 14.9069 24.1298 14.8191C24.0148 14.7313 23.8811 14.6712 23.7392 14.6434C23.5972 14.6156 23.4507 14.6209 23.3111 14.6589L23.2772 14.6677L15.9491 16.3531C15.8848 16.3675 15.8191 16.3748 15.7533 16.375H12.25C12.0179 16.375 11.7954 16.2828 11.6313 16.1187C11.4672 15.9546 11.375 15.7321 11.375 15.5C11.375 15.2679 11.4672 15.0454 11.6313 14.8813C11.7954 14.7172 12.0179 14.625 12.25 14.625H15.3125C15.6606 14.625 15.9944 14.4867 16.2406 14.2406C16.4867 13.9944 16.625 13.6606 16.625 13.3125C16.625 12.9644 16.4867 12.6306 16.2406 12.3844C15.9944 12.1383 15.6606 12 15.3125 12H9.83719C9.60729 11.9993 9.37954 12.0442 9.16717 12.1323C8.95481 12.2204 8.76207 12.3498 8.60016 12.513L6.125 14.987V19.875H13.0156L19.8439 18.1677L24.0002 16.398C24.1514 16.3183 24.278 16.1987 24.3661 16.0521C24.4542 15.9056 24.5005 15.7377 24.5 15.5667ZM18.375 7.1875C18.375 7.96626 18.6059 8.72754 19.0386 9.37506C19.4712 10.0226 20.0862 10.5273 20.8057 10.8253C21.5252 11.1233 22.3169 11.2013 23.0807 11.0493C23.8445 10.8974 24.5461 10.5224 25.0967 9.97173C25.6474 9.42106 26.0224 8.71947 26.1743 7.95567C26.3263 7.19187 26.2483 6.40017 25.9503 5.68068C25.6523 4.9612 25.1476 4.34624 24.5001 3.91359C23.8525 3.48093 23.0913 3.25 22.3125 3.25C21.2682 3.25 20.2667 3.66484 19.5283 4.40326C18.7898 5.14169 18.375 6.14321 18.375 7.1875Z" fill="#272829"/>
</svg>
