<!DOCTYPE svg PUBLIC "-//W3C//DTD SVG 1.1//EN" "http://www.w3.org/Graphics/SVG/1.1/DTD/svg11.dtd">
<!-- Uploaded to: SVG Repo, www.svgrepo.com, Transformed by: SVG Repo Mixer Tools -->
<svg fill="#000000" height="800px" width="800px" version="1.1" id="Capa_1" xmlns="http://www.w3.org/2000/svg" xmlns:xlink="http://www.w3.org/1999/xlink" viewBox="-49.68 -49.68 596.20 596.20" xml:space="preserve">
<g id="SVGRepo_bgCarrier" stroke-width="0">
<path transform="translate(-49.68, -49.68), scale(18.63125)" d="M16,29.166255317628384C18.173543424402283,28.638918755783095,19.861961792581965,27.13896936096513,21.902901872992516,26.224125956116524C24.218575188773258,25.18613445354396,27.495505040555447,25.565518569107414,28.837658049532365,23.411825330661877C30.170823149235567,21.272554590471827,28.196108036090674,18.519458747471752,28.274441315659455,16C28.356132747268223,13.372531916278643,30.463459504917147,10.677893964891789,29.30696921303161,8.317217742758142C28.16077687410024,5.977562131732192,24.917597095238236,5.764218926198003,22.640116415385695,4.49898100037986C20.40466990412407,3.2570948530211083,18.528407349525384,1.3075874925413413,16.000000000000004,0.9246272040264945C13.30749047800862,0.5168114999769284,10.319224520649911,0.734527666890292,8.087278151618587,2.294763732443064C5.887978621226472,3.8321781138469992,5.292510754779226,6.734950191430132,4.189124413675941,9.180987800870618C3.186357931355152,11.403966677689423,1.9095380577271084,13.561321097001903,1.9049649930426042,15.999999999999998C1.9003881495315649,18.440694038401062,3.1389861086013786,20.618543269860282,4.163522369995475,22.833793545940082C5.277657148204893,25.24277355769698,5.833759790809067,28.302933415108573,8.17403454812509,29.554969780926058C10.516951793995997,30.808419866118427,13.417770689927254,29.792745642589043,16,29.166255317628384" fill="#a6c0e3" strokewidth="0"/>
</g>
<g id="SVGRepo_tracerCarrier" stroke-linecap="round" stroke-linejoin="round"/>
<g id="SVGRepo_iconCarrier"> <g> <path d="M398.248,196.799c0.016,0,0.029-0.01,0.045-0.01c-0.016,0-0.045,0.01-0.08,0.01H398.248z"/> <path d="M375.394,184.199c-4.127-6.521-8.348-13.473-12.59-20.543H65.918c-16.167,0-29.32,13.154-29.32,29.322v35.213 c0,16.166,13.153,29.316,29.32,29.316h173.558c1.686,0,3.059,1.375,3.059,3.057v48.58c0,16.84,13.708,30.539,30.538,30.539h78.5 c3.594,0,6.522,2.918,6.522,6.512v110.988c0,3.594-2.929,6.516-6.522,6.516H183.016c-5.549,9.49-11.197,18.805-16.651,27.43 c-1.378,2.174-3.074,4.053-4.935,5.711h190.143c21.866,0,39.665-17.793,39.665-39.656V346.195 c0-21.863-17.799-39.654-39.665-39.654h-75.895v-45.977c0-19.961-16.247-36.199-36.201-36.199H69.74v-27.566h328.473 C388.877,196.773,380.35,192.055,375.394,184.199z"/> <path d="M143.516,306.938c-34.226,0-61.994,27.754-61.994,61.994c0,26.103,36.037,86.254,53.156,113.359 c1.912,3.025,5.26,4.863,8.838,4.863c3.592,0,6.926-1.844,8.837-4.871c17.136-27.115,53.157-87.248,53.157-113.352 C205.51,334.691,177.756,306.938,143.516,306.938z M143.516,399.533c-15.359,0-27.804-12.451-27.804-27.811 c0-15.363,12.444-27.809,27.804-27.809c15.358,0,27.803,12.445,27.803,27.809C171.318,387.082,158.874,399.533,143.516,399.533z"/> <path d="M398.248,0c-34.23,0-61.999,27.754-61.999,61.994c0,26.106,36.022,86.238,53.162,113.354 c1.911,3.033,5.244,4.869,8.837,4.879c3.572,0,6.926-1.846,8.832-4.873c17.125-27.104,53.162-87.254,53.162-113.359 C460.242,27.754,432.488,0,398.248,0z M398.248,92.598c-15.359,0-27.804-12.453-27.804-27.811 c0-15.365,12.444-27.809,27.804-27.809c15.354,0,27.799,12.443,27.799,27.809C426.047,80.145,413.602,92.598,398.248,92.598z"/> </g> </g>
</svg>